<svg width="126" height="33" viewBox="0 0 126 33" fill="none" xmlns="http://www.w3.org/2000/svg">
<rect x="0.579102" y="0.786865" width="124.921" height="31.7131" rx="15.8566" stroke="#E2E2E2"/>
<path d="M43.9621 20.8986C43.2948 20.8986 42.6968 20.7512 42.1681 20.4566C41.6481 20.1619 41.2365 19.7502 40.9331 19.2216C40.6298 18.6929 40.4781 18.0776 40.4781 17.3756C40.4781 16.6736 40.6298 16.0626 40.9331 15.5426C41.2365 15.0139 41.6481 14.6022 42.1681 14.3076C42.6968 14.0129 43.2948 13.8656 43.9621 13.8656C44.5428 13.8656 45.0671 13.9956 45.5351 14.2556C46.0031 14.5156 46.3758 14.9056 46.6531 15.4256C46.9391 15.9456 47.0821 16.5956 47.0821 17.3756C47.0821 18.1556 46.9435 18.8056 46.6661 19.3256C46.3975 19.8456 46.0291 20.2399 45.5611 20.5086C45.0931 20.7686 44.5601 20.8986 43.9621 20.8986ZM44.0661 19.8066C44.4995 19.8066 44.8895 19.7069 45.2361 19.5076C45.5915 19.3082 45.8688 19.0266 46.0681 18.6626C46.2761 18.2899 46.3801 17.8609 46.3801 17.3756C46.3801 16.8816 46.2761 16.4569 46.0681 16.1016C45.8688 15.7376 45.5915 15.4559 45.2361 15.2566C44.8895 15.0572 44.4995 14.9576 44.0661 14.9576C43.6241 14.9576 43.2298 15.0572 42.8831 15.2566C42.5365 15.4559 42.2591 15.7376 42.0511 16.1016C41.8431 16.4569 41.7391 16.8816 41.7391 17.3756C41.7391 17.8609 41.8431 18.2899 42.0511 18.6626C42.2591 19.0266 42.5365 19.3082 42.8831 19.5076C43.2298 19.7069 43.6241 19.8066 44.0661 19.8066ZM46.4191 20.8206V18.9616L46.4971 17.3626L46.3671 15.7636V11.1746H47.6151V20.8206H46.4191ZM52.5245 20.8986C51.7878 20.8986 51.1378 20.7469 50.5745 20.4436C50.0198 20.1402 49.5865 19.7242 49.2745 19.1956C48.9711 18.6669 48.8195 18.0602 48.8195 17.3756C48.8195 16.6909 48.9668 16.0842 49.2615 15.5556C49.5648 15.0269 49.9765 14.6152 50.4965 14.3206C51.0251 14.0172 51.6188 13.8656 52.2775 13.8656C52.9448 13.8656 53.5341 14.0129 54.0455 14.3076C54.5568 14.6022 54.9555 15.0182 55.2415 15.5556C55.5361 16.0842 55.6835 16.7039 55.6835 17.4146C55.6835 17.4666 55.6791 17.5272 55.6705 17.5966C55.6705 17.6659 55.6661 17.7309 55.6575 17.7916H49.7945V16.8946H55.0075L54.5005 17.2066C54.5091 16.7646 54.4181 16.3702 54.2275 16.0236C54.0368 15.6769 53.7725 15.4082 53.4345 15.2176C53.1051 15.0182 52.7195 14.9186 52.2775 14.9186C51.8441 14.9186 51.4585 15.0182 51.1205 15.2176C50.7825 15.4082 50.5181 15.6812 50.3275 16.0366C50.1368 16.3832 50.0415 16.7819 50.0415 17.2326V17.4406C50.0415 17.8999 50.1455 18.3116 50.3535 18.6756C50.5701 19.0309 50.8691 19.3082 51.2505 19.5076C51.6318 19.7069 52.0695 19.8066 52.5635 19.8066C52.9708 19.8066 53.3391 19.7372 53.6685 19.5986C54.0065 19.4599 54.3011 19.2519 54.5525 18.9746L55.2415 19.7806C54.9295 20.1446 54.5395 20.4219 54.0715 20.6126C53.6121 20.8032 53.0965 20.8986 52.5245 20.8986ZM58.5765 20.8206L55.5605 13.9306H56.8605L59.5385 20.1706H58.9145L61.6445 13.9306H62.8665L59.8505 20.8206H58.5765ZM67.1642 20.8986C66.5922 20.8986 66.0679 20.7686 65.5912 20.5086C65.1232 20.2399 64.7462 19.8456 64.4602 19.3256C64.1829 18.8056 64.0442 18.1556 64.0442 17.3756C64.0442 16.5956 64.1785 15.9456 64.4472 15.4256C64.7245 14.9056 65.0972 14.5156 65.5652 14.2556C66.0419 13.9956 66.5749 13.8656 67.1642 13.8656C67.8402 13.8656 68.4382 14.0129 68.9582 14.3076C69.4782 14.6022 69.8899 15.0139 70.1932 15.5426C70.4965 16.0626 70.6482 16.6736 70.6482 17.3756C70.6482 18.0776 70.4965 18.6929 70.1932 19.2216C69.8899 19.7502 69.4782 20.1619 68.9582 20.4566C68.4382 20.7512 67.8402 20.8986 67.1642 20.8986ZM63.5112 23.3426V13.9306H64.7072V15.7896L64.6292 17.3886L64.7592 18.9876V23.3426H63.5112ZM67.0602 19.8066C67.5022 19.8066 67.8965 19.7069 68.2432 19.5076C68.5985 19.3082 68.8759 19.0266 69.0752 18.6626C69.2832 18.2899 69.3872 17.8609 69.3872 17.3756C69.3872 16.8816 69.2832 16.4569 69.0752 16.1016C68.8759 15.7376 68.5985 15.4559 68.2432 15.2566C67.8965 15.0572 67.5022 14.9576 67.0602 14.9576C66.6269 14.9576 66.2325 15.0572 65.8772 15.2566C65.5305 15.4559 65.2532 15.7376 65.0452 16.1016C64.8459 16.4569 64.7462 16.8816 64.7462 17.3756C64.7462 17.8609 64.8459 18.2899 65.0452 18.6626C65.2532 19.0266 65.5305 19.3082 65.8772 19.5076C66.2325 19.7069 66.6269 19.8066 67.0602 19.8066ZM74.8035 20.8986C74.1102 20.8986 73.4948 20.7469 72.9575 20.4436C72.4202 20.1402 71.9955 19.7242 71.6835 19.1956C71.3715 18.6582 71.2155 18.0516 71.2155 17.3756C71.2155 16.6909 71.3715 16.0842 71.6835 15.5556C71.9955 15.0269 72.4202 14.6152 72.9575 14.3206C73.4948 14.0172 74.1102 13.8656 74.8035 13.8656C75.4882 13.8656 76.0992 14.0172 76.6365 14.3206C77.1825 14.6152 77.6072 15.0269 77.9105 15.5556C78.2225 16.0756 78.3785 16.6822 78.3785 17.3756C78.3785 18.0602 78.2225 18.6669 77.9105 19.1956C77.6072 19.7242 77.1825 20.1402 76.6365 20.4436C76.0992 20.7469 75.4882 20.8986 74.8035 20.8986ZM74.8035 19.8066C75.2455 19.8066 75.6398 19.7069 75.9865 19.5076C76.3418 19.3082 76.6192 19.0266 76.8185 18.6626C77.0178 18.2899 77.1175 17.8609 77.1175 17.3756C77.1175 16.8816 77.0178 16.4569 76.8185 16.1016C76.6192 15.7376 76.3418 15.4559 75.9865 15.2566C75.6398 15.0572 75.2455 14.9576 74.8035 14.9576C74.3615 14.9576 73.9672 15.0572 73.6205 15.2566C73.2738 15.4559 72.9965 15.7376 72.7885 16.1016C72.5805 16.4569 72.4765 16.8816 72.4765 17.3756C72.4765 17.8609 72.5805 18.2899 72.7885 18.6626C72.9965 19.0266 73.2738 19.3082 73.6205 19.5076C73.9672 19.7069 74.3615 19.8066 74.8035 19.8066ZM81.5605 20.8986C80.9885 20.8986 80.4425 20.8206 79.9225 20.6646C79.4111 20.5086 79.0081 20.3179 78.7135 20.0926L79.2335 19.1046C79.5281 19.3039 79.8921 19.4729 80.3255 19.6116C80.7588 19.7502 81.2008 19.8196 81.6515 19.8196C82.2321 19.8196 82.6481 19.7372 82.8995 19.5726C83.1595 19.4079 83.2895 19.1782 83.2895 18.8836C83.2895 18.6669 83.2115 18.4979 83.0555 18.3766C82.8995 18.2552 82.6915 18.1642 82.4315 18.1036C82.1801 18.0429 81.8985 17.9909 81.5865 17.9476C81.2745 17.8956 80.9625 17.8349 80.6505 17.7656C80.3385 17.6876 80.0525 17.5836 79.7925 17.4536C79.5325 17.3149 79.3245 17.1286 79.1685 16.8946C79.0125 16.6519 78.9345 16.3312 78.9345 15.9326C78.9345 15.5166 79.0515 15.1526 79.2855 14.8406C79.5195 14.5286 79.8488 14.2902 80.2735 14.1256C80.7068 13.9522 81.2181 13.8656 81.8075 13.8656C82.2581 13.8656 82.7131 13.9219 83.1725 14.0346C83.6405 14.1386 84.0218 14.2902 84.3165 14.4896L83.7835 15.4776C83.4715 15.2696 83.1465 15.1266 82.8085 15.0486C82.4705 14.9706 82.1325 14.9316 81.7945 14.9316C81.2485 14.9316 80.8411 15.0226 80.5725 15.2046C80.3038 15.3779 80.1695 15.6032 80.1695 15.8806C80.1695 16.1146 80.2475 16.2966 80.4035 16.4266C80.5681 16.5479 80.7761 16.6432 81.0275 16.7126C81.2875 16.7819 81.5735 16.8426 81.8855 16.8946C82.1975 16.9379 82.5095 16.9986 82.8215 17.0766C83.1335 17.1459 83.4151 17.2456 83.6665 17.3756C83.9265 17.5056 84.1345 17.6876 84.2905 17.9216C84.4551 18.1556 84.5375 18.4676 84.5375 18.8576C84.5375 19.2736 84.4161 19.6332 84.1735 19.9366C83.9308 20.2399 83.5885 20.4782 83.1465 20.6516C82.7045 20.8162 82.1758 20.8986 81.5605 20.8986ZM87.9432 20.8986C87.2498 20.8986 86.7125 20.7122 86.3312 20.3396C85.9498 19.9669 85.7592 19.4339 85.7592 18.7406V12.4226H87.0072V18.6886C87.0072 19.0612 87.0982 19.3472 87.2802 19.5466C87.4708 19.7459 87.7395 19.8456 88.0862 19.8456C88.4762 19.8456 88.8012 19.7372 89.0612 19.5206L89.4512 20.4176C89.2605 20.5822 89.0308 20.7036 88.7622 20.7816C88.5022 20.8596 88.2292 20.8986 87.9432 20.8986ZM84.5892 14.9576V13.9306H88.9832V14.9576H84.5892Z" fill="#5B5B5B"/>
</svg>
