<svg width="138" height="33" viewBox="0 0 138 33" fill="none" xmlns="http://www.w3.org/2000/svg">
<rect x="0.5" y="0.5" width="137" height="31.7131" rx="15.8566" stroke="#E2E2E2"/>
<path d="M55.9649 20.6117C55.2282 20.6117 54.5782 20.46 54.0149 20.1567C53.4602 19.8534 53.0269 19.4374 52.7149 18.9087C52.4115 18.38 52.2599 17.7734 52.2599 17.0887C52.2599 16.404 52.4072 15.7974 52.7019 15.2687C53.0052 14.74 53.4169 14.3284 53.9369 14.0337C54.4655 13.7304 55.0592 13.5787 55.7179 13.5787C56.3852 13.5787 56.9745 13.726 57.4859 14.0207C57.9972 14.3154 58.3959 14.7314 58.6819 15.2687C58.9765 15.7974 59.1239 16.417 59.1239 17.1277C59.1239 17.1797 59.1195 17.2404 59.1109 17.3097C59.1109 17.379 59.1065 17.444 59.0979 17.5047H53.2349V16.6077H58.4479L57.9409 16.9197C57.9495 16.4777 57.8585 16.0834 57.6679 15.7367C57.4772 15.39 57.2129 15.1214 56.8749 14.9307C56.5455 14.7314 56.1599 14.6317 55.7179 14.6317C55.2845 14.6317 54.8989 14.7314 54.5609 14.9307C54.2229 15.1214 53.9585 15.3944 53.7679 15.7497C53.5772 16.0964 53.4819 16.495 53.4819 16.9457V17.1537C53.4819 17.613 53.5859 18.0247 53.7939 18.3887C54.0105 18.744 54.3095 19.0214 54.6909 19.2207C55.0722 19.42 55.5099 19.5197 56.0039 19.5197C56.4112 19.5197 56.7795 19.4504 57.1089 19.3117C57.4469 19.173 57.7415 18.965 57.9929 18.6877L58.6819 19.4937C58.3699 19.8577 57.9799 20.135 57.5119 20.3257C57.0525 20.5164 56.5369 20.6117 55.9649 20.6117ZM68.9558 13.5787C69.5105 13.5787 70.0002 13.687 70.4248 13.9037C70.8495 14.1204 71.1788 14.4497 71.4128 14.8917C71.6555 15.3337 71.7768 15.8927 71.7768 16.5687V20.5337H70.5288V16.7117C70.5288 16.0444 70.3728 15.5417 70.0608 15.2037C69.7488 14.8657 69.3112 14.6967 68.7478 14.6967C68.3318 14.6967 67.9678 14.7834 67.6558 14.9567C67.3438 15.13 67.1012 15.3857 66.9278 15.7237C66.7632 16.0617 66.6808 16.482 66.6808 16.9847V20.5337H65.4328V16.7117C65.4328 16.0444 65.2768 15.5417 64.9648 15.2037C64.6615 14.8657 64.2238 14.6967 63.6518 14.6967C63.2445 14.6967 62.8848 14.7834 62.5728 14.9567C62.2608 15.13 62.0182 15.3857 61.8448 15.7237C61.6715 16.0617 61.5848 16.482 61.5848 16.9847V20.5337H60.3368V13.6437H61.5328V15.4767L61.3378 15.0087C61.5545 14.558 61.8882 14.207 62.3388 13.9557C62.7895 13.7044 63.3138 13.5787 63.9118 13.5787C64.5705 13.5787 65.1382 13.7434 65.6148 14.0727C66.0915 14.3934 66.4035 14.883 66.5508 15.5417L66.0438 15.3337C66.2518 14.805 66.6158 14.3804 67.1358 14.0597C67.6558 13.739 68.2625 13.5787 68.9558 13.5787ZM77.8302 20.5337V19.0777L77.7652 18.8047V16.3217C77.7652 15.793 77.6092 15.3857 77.2972 15.0997C76.9938 14.805 76.5345 14.6577 75.9192 14.6577C75.5118 14.6577 75.1132 14.727 74.7232 14.8657C74.3332 14.9957 74.0038 15.1734 73.7352 15.3987L73.2152 14.4627C73.5705 14.1767 73.9952 13.96 74.4892 13.8127C74.9918 13.6567 75.5162 13.5787 76.0622 13.5787C77.0068 13.5787 77.7348 13.8084 78.2462 14.2677C78.7575 14.727 79.0132 15.429 79.0132 16.3737V20.5337H77.8302ZM75.5682 20.6117C75.0568 20.6117 74.6062 20.525 74.2162 20.3517C73.8348 20.1784 73.5402 19.94 73.3322 19.6367C73.1242 19.3247 73.0202 18.9737 73.0202 18.5837C73.0202 18.211 73.1068 17.873 73.2802 17.5697C73.4622 17.2664 73.7525 17.0237 74.1512 16.8417C74.5585 16.6597 75.1045 16.5687 75.7892 16.5687H77.9732V17.4657H75.8412C75.2172 17.4657 74.7968 17.5697 74.5802 17.7777C74.3635 17.9857 74.2552 18.237 74.2552 18.5317C74.2552 18.8697 74.3895 19.1427 74.6582 19.3507C74.9268 19.55 75.2995 19.6497 75.7762 19.6497C76.2442 19.6497 76.6515 19.5457 76.9982 19.3377C77.3535 19.1297 77.6092 18.8264 77.7652 18.4277L78.0122 19.2857C77.8475 19.693 77.5572 20.018 77.1412 20.2607C76.7252 20.4947 76.2008 20.6117 75.5682 20.6117ZM80.8027 20.5337V13.6437H82.0507V20.5337H80.8027ZM81.4267 12.3177C81.184 12.3177 80.9804 12.2397 80.8157 12.0837C80.6597 11.9277 80.5817 11.737 80.5817 11.5117C80.5817 11.2777 80.6597 11.0827 80.8157 10.9267C80.9804 10.7707 81.184 10.6927 81.4267 10.6927C81.6694 10.6927 81.8687 10.7707 82.0247 10.9267C82.1894 11.074 82.2717 11.2604 82.2717 11.4857C82.2717 11.7197 82.1937 11.919 82.0377 12.0837C81.8817 12.2397 81.678 12.3177 81.4267 12.3177ZM83.9135 20.5337V10.8877H85.1615V20.5337H83.9135Z" fill="#5B5B5B"/>
</svg>
