<svg width="151" height="33" viewBox="0 0 151 33" fill="none" xmlns="http://www.w3.org/2000/svg">
<rect x="0.495605" y="0.786865" width="150.004" height="31.7131" rx="15.8566" stroke="#E2E2E2"/>
<path d="M60.7815 23.4206C60.1489 23.4206 59.5335 23.3296 58.9355 23.1476C58.3462 22.9742 57.8652 22.7229 57.4925 22.3936L58.0905 21.4316C58.4112 21.7089 58.8055 21.9256 59.2735 22.0816C59.7415 22.2462 60.2312 22.3286 60.7425 22.3286C61.5572 22.3286 62.1552 22.1379 62.5365 21.7566C62.9179 21.3752 63.1085 20.7946 63.1085 20.0146V18.5586L63.2385 17.1936L63.1735 15.8156V13.9306H64.3565V19.8846C64.3565 21.0979 64.0532 21.9906 63.4465 22.5626C62.8399 23.1346 61.9515 23.4206 60.7815 23.4206ZM60.6255 20.5346C59.9582 20.5346 59.3602 20.3959 58.8315 20.1186C58.3115 19.8326 57.8955 19.4382 57.5835 18.9356C57.2802 18.4329 57.1285 17.8522 57.1285 17.1936C57.1285 16.5262 57.2802 15.9456 57.5835 15.4516C57.8955 14.9489 58.3115 14.5589 58.8315 14.2816C59.3602 14.0042 59.9582 13.8656 60.6255 13.8656C61.2149 13.8656 61.7522 13.9869 62.2375 14.2296C62.7229 14.4636 63.1085 14.8276 63.3945 15.3216C63.6892 15.8156 63.8365 16.4396 63.8365 17.1936C63.8365 17.9389 63.6892 18.5586 63.3945 19.0526C63.1085 19.5466 62.7229 19.9192 62.2375 20.1706C61.7522 20.4132 61.2149 20.5346 60.6255 20.5346ZM60.7685 19.4426C61.2279 19.4426 61.6352 19.3472 61.9905 19.1566C62.3459 18.9659 62.6232 18.7016 62.8225 18.3636C63.0305 18.0256 63.1345 17.6356 63.1345 17.1936C63.1345 16.7516 63.0305 16.3616 62.8225 16.0236C62.6232 15.6856 62.3459 15.4256 61.9905 15.2436C61.6352 15.0529 61.2279 14.9576 60.7685 14.9576C60.3092 14.9576 59.8975 15.0529 59.5335 15.2436C59.1782 15.4256 58.8965 15.6856 58.6885 16.0236C58.4892 16.3616 58.3895 16.7516 58.3895 17.1936C58.3895 17.6356 58.4892 18.0256 58.6885 18.3636C58.8965 18.7016 59.1782 18.9659 59.5335 19.1566C59.8975 19.3472 60.3092 19.4426 60.7685 19.4426ZM66.2211 20.8206V13.9306H67.4691V20.8206H66.2211ZM66.8451 12.6046C66.6024 12.6046 66.3988 12.5266 66.2341 12.3706C66.0781 12.2146 66.0001 12.0239 66.0001 11.7986C66.0001 11.5646 66.0781 11.3696 66.2341 11.2136C66.3988 11.0576 66.6024 10.9796 66.8451 10.9796C67.0878 10.9796 67.2871 11.0576 67.4431 11.2136C67.6078 11.3609 67.6901 11.5472 67.6901 11.7726C67.6901 12.0066 67.6121 12.2059 67.4561 12.3706C67.3001 12.5266 67.0964 12.6046 66.8451 12.6046ZM71.698 20.8986C71.0046 20.8986 70.4673 20.7122 70.086 20.3396C69.7046 19.9669 69.514 19.4339 69.514 18.7406V12.4226H70.762V18.6886C70.762 19.0612 70.853 19.3472 71.035 19.5466C71.2256 19.7459 71.4943 19.8456 71.841 19.8456C72.231 19.8456 72.556 19.7372 72.816 19.5206L73.206 20.4176C73.0153 20.5822 72.7856 20.7036 72.517 20.7816C72.257 20.8596 71.984 20.8986 71.698 20.8986ZM68.344 14.9576V13.9306H72.738V14.9576H68.344ZM77.8738 13.8656C78.4371 13.8656 78.9311 13.9739 79.3558 14.1906C79.7891 14.4072 80.1271 14.7366 80.3698 15.1786C80.6124 15.6206 80.7338 16.1796 80.7338 16.8556V20.8206H79.4858V16.9986C79.4858 16.3312 79.3211 15.8286 78.9918 15.4906C78.6711 15.1526 78.2161 14.9836 77.6268 14.9836C77.1848 14.9836 76.7991 15.0702 76.4698 15.2436C76.1404 15.4169 75.8848 15.6726 75.7028 16.0106C75.5294 16.3486 75.4428 16.7689 75.4428 17.2716V20.8206H74.1948V11.1746H75.4428V15.7896L75.1958 15.2956C75.4211 14.8449 75.7678 14.4939 76.2358 14.2426C76.7038 13.9912 77.2498 13.8656 77.8738 13.8656ZM85.4224 20.8986C84.8331 20.8986 84.3131 20.7902 83.8624 20.5736C83.4204 20.3569 83.0737 20.0276 82.8224 19.5856C82.5797 19.1349 82.4584 18.5716 82.4584 17.8956V13.9306H83.7064V17.7526C83.7064 18.4286 83.8667 18.9356 84.1874 19.2736C84.5167 19.6116 84.9761 19.7806 85.5654 19.7806C85.9987 19.7806 86.3757 19.6939 86.6964 19.5206C87.0171 19.3386 87.2641 19.0786 87.4374 18.7406C87.6107 18.3939 87.6974 17.9779 87.6974 17.4926V13.9306H88.9454V20.8206H87.7624V18.9616L87.9574 19.4556C87.7321 19.9149 87.3941 20.2702 86.9434 20.5216C86.4927 20.7729 85.9857 20.8986 85.4224 20.8986ZM94.4543 20.8986C93.8649 20.8986 93.3319 20.7686 92.8553 20.5086C92.3873 20.2399 92.0146 19.8456 91.7373 19.3256C91.4686 18.8056 91.3343 18.1556 91.3343 17.3756C91.3343 16.5956 91.4729 15.9456 91.7503 15.4256C92.0363 14.9056 92.4133 14.5156 92.8813 14.2556C93.3579 13.9956 93.8823 13.8656 94.4543 13.8656C95.1303 13.8656 95.7283 14.0129 96.2483 14.3076C96.7683 14.6022 97.1799 15.0139 97.4833 15.5426C97.7866 16.0626 97.9383 16.6736 97.9383 17.3756C97.9383 18.0776 97.7866 18.6929 97.4833 19.2216C97.1799 19.7502 96.7683 20.1619 96.2483 20.4566C95.7283 20.7512 95.1303 20.8986 94.4543 20.8986ZM90.8013 20.8206V11.1746H92.0493V15.7636L91.9193 17.3626L91.9973 18.9616V20.8206H90.8013ZM94.3503 19.8066C94.7923 19.8066 95.1866 19.7069 95.5333 19.5076C95.8886 19.3082 96.1659 19.0266 96.3653 18.6626C96.5733 18.2899 96.6773 17.8609 96.6773 17.3756C96.6773 16.8816 96.5733 16.4569 96.3653 16.1016C96.1659 15.7376 95.8886 15.4559 95.5333 15.2566C95.1866 15.0572 94.7923 14.9576 94.3503 14.9576C93.9169 14.9576 93.5226 15.0572 93.1673 15.2566C92.8206 15.4559 92.5433 15.7376 92.3353 16.1016C92.1359 16.4569 92.0363 16.8816 92.0363 17.3756C92.0363 17.8609 92.1359 18.2899 92.3353 18.6626C92.5433 19.0266 92.8206 19.3082 93.1673 19.5076C93.5226 19.7069 93.9169 19.8066 94.3503 19.8066Z" fill="#5B5B5B"/>
</svg>
