<svg width="276" height="40" viewBox="0 0 276 40" fill="none" xmlns="http://www.w3.org/2000/svg">
<rect x="0.5" y="0.5" width="234" height="39" rx="19.5" stroke="#E2E2E2"/>
<path d="M33.186 24.078C32.484 24.078 31.8557 23.9263 31.301 23.623C30.755 23.3197 30.326 22.9037 30.014 22.375C29.702 21.8463 29.546 21.2397 29.546 20.555C29.546 19.8703 29.702 19.2637 30.014 18.735C30.326 18.2063 30.755 17.7947 31.301 17.5C31.8557 17.1967 32.484 17.045 33.186 17.045C33.81 17.045 34.3647 17.1707 34.85 17.422C35.344 17.6647 35.7253 18.0287 35.994 18.514L35.045 19.125C34.8197 18.787 34.5423 18.54 34.213 18.384C33.8923 18.2193 33.5457 18.137 33.173 18.137C32.7223 18.137 32.3193 18.2367 31.964 18.436C31.6087 18.6353 31.327 18.917 31.119 19.281C30.911 19.6363 30.807 20.061 30.807 20.555C30.807 21.049 30.911 21.478 31.119 21.842C31.327 22.206 31.6087 22.4877 31.964 22.687C32.3193 22.8863 32.7223 22.986 33.173 22.986C33.5457 22.986 33.8923 22.908 34.213 22.752C34.5423 22.5873 34.8197 22.336 35.045 21.998L35.994 22.596C35.7253 23.0727 35.344 23.441 34.85 23.701C34.3647 23.9523 33.81 24.078 33.186 24.078ZM39.9392 24.078C39.2459 24.078 38.6305 23.9263 38.0932 23.623C37.5559 23.3197 37.1312 22.9037 36.8192 22.375C36.5072 21.8377 36.3512 21.231 36.3512 20.555C36.3512 19.8703 36.5072 19.2637 36.8192 18.735C37.1312 18.2063 37.5559 17.7947 38.0932 17.5C38.6305 17.1967 39.2459 17.045 39.9392 17.045C40.6239 17.045 41.2349 17.1967 41.7722 17.5C42.3182 17.7947 42.7429 18.2063 43.0462 18.735C43.3582 19.255 43.5142 19.8617 43.5142 20.555C43.5142 21.2397 43.3582 21.8463 43.0462 22.375C42.7429 22.9037 42.3182 23.3197 41.7722 23.623C41.2349 23.9263 40.6239 24.078 39.9392 24.078ZM39.9392 22.986C40.3812 22.986 40.7755 22.8863 41.1222 22.687C41.4775 22.4877 41.7549 22.206 41.9542 21.842C42.1535 21.4693 42.2532 21.0403 42.2532 20.555C42.2532 20.061 42.1535 19.6363 41.9542 19.281C41.7549 18.917 41.4775 18.6353 41.1222 18.436C40.7755 18.2367 40.3812 18.137 39.9392 18.137C39.4972 18.137 39.1029 18.2367 38.7562 18.436C38.4095 18.6353 38.1322 18.917 37.9242 19.281C37.7162 19.6363 37.6122 20.061 37.6122 20.555C37.6122 21.0403 37.7162 21.4693 37.9242 21.842C38.1322 22.206 38.4095 22.4877 38.7562 22.687C39.1029 22.8863 39.4972 22.986 39.9392 22.986ZM48.3991 17.045C48.9625 17.045 49.4565 17.1533 49.8811 17.37C50.3145 17.5867 50.6525 17.916 50.8951 18.358C51.1378 18.8 51.2591 19.359 51.2591 20.035V24H50.0111V20.178C50.0111 19.5107 49.8465 19.008 49.5171 18.67C49.1965 18.332 48.7415 18.163 48.1521 18.163C47.7101 18.163 47.3245 18.2497 46.9951 18.423C46.6658 18.5963 46.4101 18.852 46.2281 19.19C46.0548 19.528 45.9681 19.9483 45.9681 20.451V24H44.7201V17.11H45.9161V18.969L45.7211 18.475C45.9465 18.0243 46.2931 17.6733 46.7611 17.422C47.2291 17.1707 47.7751 17.045 48.3991 17.045ZM56.7278 17.045C57.2911 17.045 57.7851 17.1533 58.2098 17.37C58.6431 17.5867 58.9811 17.916 59.2238 18.358C59.4664 18.8 59.5878 19.359 59.5878 20.035V24H58.3398V20.178C58.3398 19.5107 58.1751 19.008 57.8458 18.67C57.5251 18.332 57.0701 18.163 56.4808 18.163C56.0388 18.163 55.6531 18.2497 55.3238 18.423C54.9944 18.5963 54.7388 18.852 54.5568 19.19C54.3834 19.528 54.2968 19.9483 54.2968 20.451V24H53.0488V17.11H54.2448V18.969L54.0498 18.475C54.2751 18.0243 54.6218 17.6733 55.0898 17.422C55.5578 17.1707 56.1038 17.045 56.7278 17.045ZM64.4454 24.078C63.7087 24.078 63.0587 23.9263 62.4954 23.623C61.9407 23.3197 61.5074 22.9037 61.1954 22.375C60.8921 21.8463 60.7404 21.2397 60.7404 20.555C60.7404 19.8703 60.8877 19.2637 61.1824 18.735C61.4857 18.2063 61.8974 17.7947 62.4174 17.5C62.9461 17.1967 63.5397 17.045 64.1984 17.045C64.8657 17.045 65.4551 17.1923 65.9664 17.487C66.4777 17.7817 66.8764 18.1977 67.1624 18.735C67.4571 19.2637 67.6044 19.8833 67.6044 20.594C67.6044 20.646 67.6001 20.7067 67.5914 20.776C67.5914 20.8453 67.5871 20.9103 67.5784 20.971H61.7154V20.074H66.9284L66.4214 20.386C66.4301 19.944 66.3391 19.5497 66.1484 19.203C65.9577 18.8563 65.6934 18.5877 65.3554 18.397C65.0261 18.1977 64.6404 18.098 64.1984 18.098C63.7651 18.098 63.3794 18.1977 63.0414 18.397C62.7034 18.5877 62.4391 18.8607 62.2484 19.216C62.0577 19.5627 61.9624 19.9613 61.9624 20.412V20.62C61.9624 21.0793 62.0664 21.491 62.2744 21.855C62.4911 22.2103 62.7901 22.4877 63.1714 22.687C63.5527 22.8863 63.9904 22.986 64.4844 22.986C64.8917 22.986 65.2601 22.9167 65.5894 22.778C65.9274 22.6393 66.2221 22.4313 66.4734 22.154L67.1624 22.96C66.8504 23.324 66.4604 23.6013 65.9924 23.792C65.5331 23.9827 65.0174 24.078 64.4454 24.078ZM71.8204 24.078C71.1184 24.078 70.49 23.9263 69.9354 23.623C69.3894 23.3197 68.9604 22.9037 68.6484 22.375C68.3364 21.8463 68.1804 21.2397 68.1804 20.555C68.1804 19.8703 68.3364 19.2637 68.6484 18.735C68.9604 18.2063 69.3894 17.7947 69.9354 17.5C70.49 17.1967 71.1184 17.045 71.8204 17.045C72.4444 17.045 72.999 17.1707 73.4844 17.422C73.9784 17.6647 74.3597 18.0287 74.6284 18.514L73.6794 19.125C73.454 18.787 73.1767 18.54 72.8474 18.384C72.5267 18.2193 72.18 18.137 71.8074 18.137C71.3567 18.137 70.9537 18.2367 70.5984 18.436C70.243 18.6353 69.9614 18.917 69.7534 19.281C69.5454 19.6363 69.4414 20.061 69.4414 20.555C69.4414 21.049 69.5454 21.478 69.7534 21.842C69.9614 22.206 70.243 22.4877 70.5984 22.687C70.9537 22.8863 71.3567 22.986 71.8074 22.986C72.18 22.986 72.5267 22.908 72.8474 22.752C73.1767 22.5873 73.454 22.336 73.6794 21.998L74.6284 22.596C74.3597 23.0727 73.9784 23.441 73.4844 23.701C72.999 23.9523 72.4444 24.078 71.8204 24.078ZM78.179 24.078C77.4857 24.078 76.9483 23.8917 76.567 23.519C76.1857 23.1463 75.995 22.6133 75.995 21.92V15.602H77.243V21.868C77.243 22.2407 77.334 22.5267 77.516 22.726C77.7067 22.9253 77.9753 23.025 78.322 23.025C78.712 23.025 79.037 22.9167 79.297 22.7L79.687 23.597C79.4963 23.7617 79.2667 23.883 78.998 23.961C78.738 24.039 78.465 24.078 78.179 24.078ZM74.825 18.137V17.11H79.219V18.137H74.825ZM85.103 24L82.542 17.11H83.725L86 23.35H85.441L87.807 17.11H88.86L91.174 23.35H90.628L92.955 17.11H94.073L91.499 24H90.303L88.132 18.306H88.496L86.299 24H85.103ZM94.8194 24V17.11H96.0674V24H94.8194ZM95.4434 15.784C95.2007 15.784 94.9971 15.706 94.8324 15.55C94.6764 15.394 94.5984 15.2033 94.5984 14.978C94.5984 14.744 94.6764 14.549 94.8324 14.393C94.9971 14.237 95.2007 14.159 95.4434 14.159C95.6861 14.159 95.8854 14.237 96.0414 14.393C96.2061 14.5403 96.2884 14.7267 96.2884 14.952C96.2884 15.186 96.2104 15.3853 96.0544 15.55C95.8984 15.706 95.6947 15.784 95.4434 15.784ZM100.296 24.078C99.6029 24.078 99.0656 23.8917 98.6843 23.519C98.3029 23.1463 98.1123 22.6133 98.1123 21.92V15.602H99.3603V21.868C99.3603 22.2407 99.4513 22.5267 99.6333 22.726C99.8239 22.9253 100.093 23.025 100.439 23.025C100.829 23.025 101.154 22.9167 101.414 22.7L101.804 23.597C101.614 23.7617 101.384 23.883 101.115 23.961C100.855 24.039 100.582 24.078 100.296 24.078ZM96.9423 18.137V17.11H101.336V18.137H96.9423ZM106.472 17.045C107.035 17.045 107.529 17.1533 107.954 17.37C108.387 17.5867 108.725 17.916 108.968 18.358C109.211 18.8 109.332 19.359 109.332 20.035V24H108.084V20.178C108.084 19.5107 107.919 19.008 107.59 18.67C107.269 18.332 106.814 18.163 106.225 18.163C105.783 18.163 105.397 18.2497 105.068 18.423C104.739 18.5963 104.483 18.852 104.301 19.19C104.128 19.528 104.041 19.9483 104.041 20.451V24H102.793V14.354H104.041V18.969L103.794 18.475C104.019 18.0243 104.366 17.6733 104.834 17.422C105.302 17.1707 105.848 17.045 106.472 17.045ZM122.712 17.045C123.267 17.045 123.756 17.1533 124.181 17.37C124.606 17.5867 124.935 17.916 125.169 18.358C125.412 18.8 125.533 19.359 125.533 20.035V24H124.285V20.178C124.285 19.5107 124.129 19.008 123.817 18.67C123.505 18.332 123.067 18.163 122.504 18.163C122.088 18.163 121.724 18.2497 121.412 18.423C121.1 18.5963 120.857 18.852 120.684 19.19C120.519 19.528 120.437 19.9483 120.437 20.451V24H119.189V20.178C119.189 19.5107 119.033 19.008 118.721 18.67C118.418 18.332 117.98 18.163 117.408 18.163C117.001 18.163 116.641 18.2497 116.329 18.423C116.017 18.5963 115.774 18.852 115.601 19.19C115.428 19.528 115.341 19.9483 115.341 20.451V24H114.093V17.11H115.289V18.943L115.094 18.475C115.311 18.0243 115.644 17.6733 116.095 17.422C116.546 17.1707 117.07 17.045 117.668 17.045C118.327 17.045 118.894 17.2097 119.371 17.539C119.848 17.8597 120.16 18.3493 120.307 19.008L119.8 18.8C120.008 18.2713 120.372 17.8467 120.892 17.526C121.412 17.2053 122.019 17.045 122.712 17.045ZM130.377 24.078C129.641 24.078 128.991 23.9263 128.427 23.623C127.873 23.3197 127.439 22.9037 127.127 22.375C126.824 21.8463 126.672 21.2397 126.672 20.555C126.672 19.8703 126.82 19.2637 127.114 18.735C127.418 18.2063 127.829 17.7947 128.349 17.5C128.878 17.1967 129.472 17.045 130.13 17.045C130.798 17.045 131.387 17.1923 131.898 17.487C132.41 17.7817 132.808 18.1977 133.094 18.735C133.389 19.2637 133.536 19.8833 133.536 20.594C133.536 20.646 133.532 20.7067 133.523 20.776C133.523 20.8453 133.519 20.9103 133.51 20.971H127.647V20.074H132.86L132.353 20.386C132.362 19.944 132.271 19.5497 132.08 19.203C131.89 18.8563 131.625 18.5877 131.287 18.397C130.958 18.1977 130.572 18.098 130.13 18.098C129.697 18.098 129.311 18.1977 128.973 18.397C128.635 18.5877 128.371 18.8607 128.18 19.216C127.99 19.5627 127.894 19.9613 127.894 20.412V20.62C127.894 21.0793 127.998 21.491 128.206 21.855C128.423 22.2103 128.722 22.4877 129.103 22.687C129.485 22.8863 129.922 22.986 130.416 22.986C130.824 22.986 131.192 22.9167 131.521 22.778C131.859 22.6393 132.154 22.4313 132.405 22.154L133.094 22.96C132.782 23.324 132.392 23.6013 131.924 23.792C131.465 23.9827 130.949 24.078 130.377 24.078ZM140.671 24.078C139.978 24.078 139.363 23.9263 138.825 23.623C138.288 23.3197 137.863 22.9037 137.551 22.375C137.239 21.8377 137.083 21.231 137.083 20.555C137.083 19.8703 137.239 19.2637 137.551 18.735C137.863 18.2063 138.288 17.7947 138.825 17.5C139.363 17.1967 139.978 17.045 140.671 17.045C141.356 17.045 141.967 17.1967 142.504 17.5C143.05 17.7947 143.475 18.2063 143.778 18.735C144.09 19.255 144.246 19.8617 144.246 20.555C144.246 21.2397 144.09 21.8463 143.778 22.375C143.475 22.9037 143.05 23.3197 142.504 23.623C141.967 23.9263 141.356 24.078 140.671 24.078ZM140.671 22.986C141.113 22.986 141.508 22.8863 141.854 22.687C142.21 22.4877 142.487 22.206 142.686 21.842C142.886 21.4693 142.985 21.0403 142.985 20.555C142.985 20.061 142.886 19.6363 142.686 19.281C142.487 18.917 142.21 18.6353 141.854 18.436C141.508 18.2367 141.113 18.137 140.671 18.137C140.229 18.137 139.835 18.2367 139.488 18.436C139.142 18.6353 138.864 18.917 138.656 19.281C138.448 19.6363 138.344 20.061 138.344 20.555C138.344 21.0403 138.448 21.4693 138.656 21.842C138.864 22.206 139.142 22.4877 139.488 22.687C139.835 22.8863 140.229 22.986 140.671 22.986ZM149.131 17.045C149.695 17.045 150.189 17.1533 150.613 17.37C151.047 17.5867 151.385 17.916 151.627 18.358C151.87 18.8 151.991 19.359 151.991 20.035V24H150.743V20.178C150.743 19.5107 150.579 19.008 150.249 18.67C149.929 18.332 149.474 18.163 148.884 18.163C148.442 18.163 148.057 18.2497 147.727 18.423C147.398 18.5963 147.142 18.852 146.96 19.19C146.787 19.528 146.7 19.9483 146.7 20.451V24H145.452V17.11H146.648V18.969L146.453 18.475C146.679 18.0243 147.025 17.6733 147.493 17.422C147.961 17.1707 148.507 17.045 149.131 17.045ZM156.934 24V14.9H158.234V22.869H163.161V24H156.934ZM163.951 24V17.11H165.199V24H163.951ZM164.575 15.784C164.332 15.784 164.129 15.706 163.964 15.55C163.808 15.394 163.73 15.2033 163.73 14.978C163.73 14.744 163.808 14.549 163.964 14.393C164.129 14.237 164.332 14.159 164.575 14.159C164.818 14.159 165.017 14.237 165.173 14.393C165.338 14.5403 165.42 14.7267 165.42 14.952C165.42 15.186 165.342 15.3853 165.186 15.55C165.03 15.706 164.826 15.784 164.575 15.784ZM170.741 17.045C171.304 17.045 171.798 17.1533 172.223 17.37C172.656 17.5867 172.994 17.916 173.237 18.358C173.479 18.8 173.601 19.359 173.601 20.035V24H172.353V20.178C172.353 19.5107 172.188 19.008 171.859 18.67C171.538 18.332 171.083 18.163 170.494 18.163C170.052 18.163 169.666 18.2497 169.337 18.423C169.007 18.5963 168.752 18.852 168.57 19.19C168.396 19.528 168.31 19.9483 168.31 20.451V24H167.062V17.11H168.258V18.969L168.063 18.475C168.288 18.0243 168.635 17.6733 169.103 17.422C169.571 17.1707 170.117 17.045 170.741 17.045ZM176.404 22.336L176.43 20.737L180.395 17.11H181.903L178.861 20.1L178.185 20.672L176.404 22.336ZM175.39 24V14.354H176.638V24H175.39ZM180.655 24L177.951 20.646L178.757 19.645L182.189 24H180.655ZM185.67 24.078C184.933 24.078 184.283 23.9263 183.72 23.623C183.165 23.3197 182.732 22.9037 182.42 22.375C182.117 21.8463 181.965 21.2397 181.965 20.555C181.965 19.8703 182.112 19.2637 182.407 18.735C182.71 18.2063 183.122 17.7947 183.642 17.5C184.171 17.1967 184.764 17.045 185.423 17.045C186.09 17.045 186.68 17.1923 187.191 17.487C187.702 17.7817 188.101 18.1977 188.387 18.735C188.682 19.2637 188.829 19.8833 188.829 20.594C188.829 20.646 188.825 20.7067 188.816 20.776C188.816 20.8453 188.812 20.9103 188.803 20.971H182.94V20.074H188.153L187.646 20.386C187.655 19.944 187.564 19.5497 187.373 19.203C187.182 18.8563 186.918 18.5877 186.58 18.397C186.251 18.1977 185.865 18.098 185.423 18.098C184.99 18.098 184.604 18.1977 184.266 18.397C183.928 18.5877 183.664 18.8607 183.473 19.216C183.282 19.5627 183.187 19.9613 183.187 20.412V20.62C183.187 21.0793 183.291 21.491 183.499 21.855C183.716 22.2103 184.015 22.4877 184.396 22.687C184.777 22.8863 185.215 22.986 185.709 22.986C186.116 22.986 186.485 22.9167 186.814 22.778C187.152 22.6393 187.447 22.4313 187.698 22.154L188.387 22.96C188.075 23.324 187.685 23.6013 187.217 23.792C186.758 23.9827 186.242 24.078 185.67 24.078ZM192.889 24.078C192.222 24.078 191.624 23.9307 191.095 23.636C190.575 23.3413 190.163 22.9297 189.86 22.401C189.557 21.8723 189.405 21.257 189.405 20.555C189.405 19.853 189.557 19.242 189.86 18.722C190.163 18.1933 190.575 17.7817 191.095 17.487C191.624 17.1923 192.222 17.045 192.889 17.045C193.47 17.045 193.994 17.175 194.462 17.435C194.93 17.695 195.303 18.085 195.58 18.605C195.866 19.125 196.009 19.775 196.009 20.555C196.009 21.335 195.87 21.985 195.593 22.505C195.324 23.025 194.956 23.4193 194.488 23.688C194.02 23.948 193.487 24.078 192.889 24.078ZM192.993 22.986C193.426 22.986 193.816 22.8863 194.163 22.687C194.518 22.4877 194.796 22.206 194.995 21.842C195.203 21.4693 195.307 21.0403 195.307 20.555C195.307 20.061 195.203 19.6363 194.995 19.281C194.796 18.917 194.518 18.6353 194.163 18.436C193.816 18.2367 193.426 18.137 192.993 18.137C192.551 18.137 192.157 18.2367 191.81 18.436C191.463 18.6353 191.186 18.917 190.978 19.281C190.77 19.6363 190.666 20.061 190.666 20.555C190.666 21.0403 190.77 21.4693 190.978 21.842C191.186 22.206 191.463 22.4877 191.81 22.687C192.157 22.8863 192.551 22.986 192.993 22.986ZM195.346 24V22.141L195.424 20.542L195.294 18.943V14.354H196.542V24H195.346ZM198.565 24V14.9H199.865V24H198.565ZM205.567 17.045C206.13 17.045 206.624 17.1533 207.049 17.37C207.482 17.5867 207.82 17.916 208.063 18.358C208.305 18.8 208.427 19.359 208.427 20.035V24H207.179V20.178C207.179 19.5107 207.014 19.008 206.685 18.67C206.364 18.332 205.909 18.163 205.32 18.163C204.878 18.163 204.492 18.2497 204.163 18.423C203.833 18.5963 203.578 18.852 203.396 19.19C203.222 19.528 203.136 19.9483 203.136 20.451V24H201.888V17.11H203.084V18.969L202.889 18.475C203.114 18.0243 203.461 17.6733 203.929 17.422C204.397 17.1707 204.943 17.045 205.567 17.045Z" fill="#5B5B5B"/>
</svg>
