<svg width="151" height="33" viewBox="0 0 151 33" fill="none" xmlns="http://www.w3.org/2000/svg">
<rect x="0.495605" y="0.786865" width="150.004" height="31.7131" rx="15.8566" stroke="#E2E2E2"/>
<path d="M52.183 21V11.354H53.431V21H52.183ZM55.2939 21V14.11H56.5419V21H55.2939ZM55.9179 12.784C55.6752 12.784 55.4715 12.706 55.3069 12.55C55.1509 12.394 55.0729 12.2033 55.0729 11.978C55.0729 11.744 55.1509 11.549 55.3069 11.393C55.4715 11.237 55.6752 11.159 55.9179 11.159C56.1605 11.159 56.3599 11.237 56.5159 11.393C56.6805 11.5403 56.7629 11.7267 56.7629 11.952C56.7629 12.186 56.6849 12.3853 56.5289 12.55C56.3729 12.706 56.1692 12.784 55.9179 12.784ZM62.0837 14.045C62.6471 14.045 63.1411 14.1533 63.5657 14.37C63.9991 14.5867 64.3371 14.916 64.5797 15.358C64.8224 15.8 64.9437 16.359 64.9437 17.035V21H63.6957V17.178C63.6957 16.5107 63.5311 16.008 63.2017 15.67C62.8811 15.332 62.4261 15.163 61.8367 15.163C61.3947 15.163 61.0091 15.2497 60.6797 15.423C60.3504 15.5963 60.0947 15.852 59.9127 16.19C59.7394 16.528 59.6527 16.9483 59.6527 17.451V21H58.4047V14.11H59.6007V15.969L59.4057 15.475C59.6311 15.0243 59.9777 14.6733 60.4457 14.422C60.9137 14.1707 61.4597 14.045 62.0837 14.045ZM67.7474 19.336L67.7734 17.737L71.7384 14.11H73.2464L70.2044 17.1L69.5284 17.672L67.7474 19.336ZM66.7334 21V11.354H67.9814V21H66.7334ZM71.9984 21L69.2944 17.646L70.1004 16.645L73.5324 21H71.9984ZM77.0128 21.078C76.2761 21.078 75.6261 20.9263 75.0628 20.623C74.5081 20.3197 74.0748 19.9037 73.7628 19.375C73.4595 18.8463 73.3078 18.2397 73.3078 17.555C73.3078 16.8703 73.4551 16.2637 73.7498 15.735C74.0531 15.2063 74.4648 14.7947 74.9848 14.5C75.5135 14.1967 76.1071 14.045 76.7658 14.045C77.4331 14.045 78.0225 14.1923 78.5338 14.487C79.0451 14.7817 79.4438 15.1977 79.7298 15.735C80.0245 16.2637 80.1718 16.8833 80.1718 17.594C80.1718 17.646 80.1675 17.7067 80.1588 17.776C80.1588 17.8453 80.1545 17.9103 80.1458 17.971H74.2828V17.074H79.4958L78.9888 17.386C78.9975 16.944 78.9065 16.5497 78.7158 16.203C78.5251 15.8563 78.2608 15.5877 77.9228 15.397C77.5935 15.1977 77.2078 15.098 76.7658 15.098C76.3325 15.098 75.9468 15.1977 75.6088 15.397C75.2708 15.5877 75.0065 15.8607 74.8158 16.216C74.6251 16.5627 74.5298 16.9613 74.5298 17.412V17.62C74.5298 18.0793 74.6338 18.491 74.8418 18.855C75.0585 19.2103 75.3575 19.4877 75.7388 19.687C76.1201 19.8863 76.5578 19.986 77.0518 19.986C77.4591 19.986 77.8275 19.9167 78.1568 19.778C78.4948 19.6393 78.7895 19.4313 79.0408 19.154L79.7298 19.96C79.4178 20.324 79.0278 20.6013 78.5598 20.792C78.1005 20.9827 77.5848 21.078 77.0128 21.078ZM84.2318 21.078C83.5644 21.078 82.9664 20.9307 82.4378 20.636C81.9178 20.3413 81.5061 19.9297 81.2028 19.401C80.8994 18.8723 80.7478 18.257 80.7478 17.555C80.7478 16.853 80.8994 16.242 81.2028 15.722C81.5061 15.1933 81.9178 14.7817 82.4378 14.487C82.9664 14.1923 83.5644 14.045 84.2318 14.045C84.8124 14.045 85.3368 14.175 85.8048 14.435C86.2728 14.695 86.6454 15.085 86.9228 15.605C87.2088 16.125 87.3518 16.775 87.3518 17.555C87.3518 18.335 87.2131 18.985 86.9358 19.505C86.6671 20.025 86.2988 20.4193 85.8308 20.688C85.3628 20.948 84.8298 21.078 84.2318 21.078ZM84.3358 19.986C84.7691 19.986 85.1591 19.8863 85.5058 19.687C85.8611 19.4877 86.1384 19.206 86.3378 18.842C86.5458 18.4693 86.6498 18.0403 86.6498 17.555C86.6498 17.061 86.5458 16.6363 86.3378 16.281C86.1384 15.917 85.8611 15.6353 85.5058 15.436C85.1591 15.2367 84.7691 15.137 84.3358 15.137C83.8938 15.137 83.4994 15.2367 83.1528 15.436C82.8061 15.6353 82.5288 15.917 82.3208 16.281C82.1128 16.6363 82.0088 17.061 82.0088 17.555C82.0088 18.0403 82.1128 18.4693 82.3208 18.842C82.5288 19.206 82.8061 19.4877 83.1528 19.687C83.4994 19.8863 83.8938 19.986 84.3358 19.986ZM86.6888 21V19.141L86.7668 17.542L86.6368 15.943V11.354H87.8848V21H86.6888ZM89.9081 21V11.9H91.2081V21H89.9081ZM96.9095 14.045C97.4728 14.045 97.9668 14.1533 98.3915 14.37C98.8248 14.5867 99.1628 14.916 99.4055 15.358C99.6482 15.8 99.7695 16.359 99.7695 17.035V21H98.5215V17.178C98.5215 16.5107 98.3568 16.008 98.0275 15.67C97.7068 15.332 97.2518 15.163 96.6625 15.163C96.2205 15.163 95.8348 15.2497 95.5055 15.423C95.1762 15.5963 94.9205 15.852 94.7385 16.19C94.5652 16.528 94.4785 16.9483 94.4785 17.451V21H93.2305V14.11H94.4265V15.969L94.2315 15.475C94.4568 15.0243 94.8035 14.6733 95.2715 14.422C95.7395 14.1707 96.2855 14.045 96.9095 14.045Z" fill="#5B5B5B"/>
</svg>
