<svg width="1483" height="776" viewBox="0 0 1483 776" fill="none" xmlns="http://www.w3.org/2000/svg">
<rect x="61.726" y="0.000244141" width="76.5039" height="47.1892" fill="#B5B5B5" fill-opacity="0.2"/>
<rect x="0.45" y="0.45" width="1397.1" height="775.1" rx="7.55" stroke="#E5E5E5" stroke-width="0.9"/>
<path d="M0.125031 46.5L1398 46.5" stroke="#E5E5E5" stroke-width="0.9"/>
<path d="M1276 10C1276 4.47715 1280.48 0 1286 0H1391C1394.87 0 1398 3.13401 1398 7V23.5V47H1337H1306.5H1291.25L1283.5 38.8469L1276 31.6531V23.5V10Z" fill="black"/>
<line x1="61.276" y1="775.005" x2="61.276" y2="6.10352e-05" stroke="#E5E5E5" stroke-width="0.9"/>
<line x1="137.4" y1="47.2173" x2="137.4" y2="0.000286102" stroke="#E5E5E5" stroke-width="0.7"/>
<line x1="20.9903" y1="21.5219" x2="42.8485" y2="21.5219" stroke="black"/>
<line x1="20.9903" y1="26.7653" x2="38.8743" y2="26.7653" stroke="black"/>
<path d="M1308.57 28.6566V19.9293H1311.84C1312.51 19.9293 1313.08 20.0543 1313.53 20.3043C1313.99 20.5543 1314.33 20.8981 1314.57 21.3356C1314.8 21.7703 1314.92 22.2646 1314.92 22.8185C1314.92 23.3782 1314.8 23.8754 1314.57 24.31C1314.33 24.7447 1313.98 25.087 1313.52 25.337C1313.06 25.5842 1312.5 25.7078 1311.82 25.7078H1309.65V24.408H1311.61C1312 24.408 1312.32 24.3399 1312.57 24.2035C1312.82 24.0671 1313.01 23.8796 1313.13 23.641C1313.25 23.4024 1313.31 23.1282 1313.31 22.8185C1313.31 22.5089 1313.25 22.2362 1313.13 22.0004C1313.01 21.7646 1312.82 21.5813 1312.57 21.4506C1312.32 21.3171 1312 21.2504 1311.6 21.2504H1310.15V28.6566H1308.57ZM1316.29 28.6566V19.9293H1319.57C1320.24 19.9293 1320.8 20.0458 1321.25 20.2788C1321.71 20.5117 1322.06 20.8384 1322.29 21.2589C1322.53 21.6765 1322.64 22.1637 1322.64 22.7205C1322.64 23.2802 1322.52 23.766 1322.29 24.1779C1322.05 24.587 1321.7 24.9038 1321.24 25.1282C1320.78 25.3498 1320.22 25.4606 1319.55 25.4606H1317.21V24.1481H1319.33C1319.72 24.1481 1320.05 24.0941 1320.3 23.9862C1320.55 23.8754 1320.73 23.7149 1320.85 23.5046C1320.97 23.2916 1321.03 23.0302 1321.03 22.7205C1321.03 22.4109 1320.97 22.1467 1320.85 21.9279C1320.73 21.7063 1320.54 21.5387 1320.29 21.4251C1320.04 21.3086 1319.72 21.2504 1319.32 21.2504H1317.87V28.6566H1316.29ZM1320.8 24.7021L1322.96 28.6566H1321.2L1319.08 24.7021H1320.8ZM1331.9 24.293C1331.9 25.2333 1331.72 26.0387 1331.37 26.7092C1331.02 27.3768 1330.54 27.8882 1329.94 28.2433C1329.33 28.5984 1328.65 28.7759 1327.89 28.7759C1327.12 28.7759 1326.44 28.5984 1325.83 28.2433C1325.23 27.8853 1324.75 27.3725 1324.4 26.7049C1324.05 26.0345 1323.88 25.2305 1323.88 24.293C1323.88 23.3526 1324.05 22.5487 1324.4 21.881C1324.75 21.2106 1325.23 20.6978 1325.83 20.3427C1326.44 19.9876 1327.12 19.81 1327.89 19.81C1328.65 19.81 1329.33 19.9876 1329.94 20.3427C1330.54 20.6978 1331.02 21.2106 1331.37 21.881C1331.72 22.5487 1331.9 23.3526 1331.9 24.293ZM1330.31 24.293C1330.31 23.631 1330.2 23.0728 1330 22.6183C1329.79 22.1609 1329.51 21.8157 1329.14 21.5828C1328.78 21.347 1328.36 21.2291 1327.89 21.2291C1327.41 21.2291 1326.99 21.347 1326.63 21.5828C1326.27 21.8157 1325.98 22.1609 1325.77 22.6183C1325.57 23.0728 1325.47 23.631 1325.47 24.293C1325.47 24.9549 1325.57 25.5146 1325.77 25.972C1325.98 26.4265 1326.27 26.7717 1326.63 27.0075C1326.99 27.2404 1327.41 27.3569 1327.89 27.3569C1328.36 27.3569 1328.78 27.2404 1329.14 27.0075C1329.51 26.7717 1329.79 26.4265 1330 25.972C1330.2 25.5146 1330.31 24.9549 1330.31 24.293ZM1336.83 19.9293H1338.4V26.0657C1338.4 26.6282 1338.28 27.1126 1338.05 27.5188C1337.81 27.9222 1337.48 28.2333 1337.06 28.4521C1336.64 28.668 1336.15 28.7759 1335.59 28.7759C1335.07 28.7759 1334.61 28.685 1334.21 28.5032C1333.8 28.3185 1333.48 28.0458 1333.24 27.685C1333 27.3242 1332.88 26.8754 1332.88 26.3384H1334.45C1334.46 26.5742 1334.51 26.7774 1334.61 26.9478C1334.71 27.1183 1334.85 27.2489 1335.03 27.3399C1335.21 27.4308 1335.41 27.4762 1335.65 27.4762C1335.9 27.4762 1336.11 27.4237 1336.29 27.3185C1336.47 27.2106 1336.6 27.0515 1336.69 26.8413C1336.78 26.631 1336.83 26.3725 1336.83 26.0657V19.9293ZM1340.12 28.6566V19.9293H1345.79V21.2546H1341.7V23.6239H1345.5V24.9492H1341.7V27.3313H1345.83V28.6566H1340.12ZM1354.88 22.8739H1353.28C1353.24 22.6126 1353.15 22.381 1353.03 22.1793C1352.91 21.9748 1352.76 21.8015 1352.58 21.6595C1352.39 21.5174 1352.19 21.4109 1351.95 21.3399C1351.72 21.266 1351.48 21.2291 1351.21 21.2291C1350.73 21.2291 1350.31 21.3484 1349.95 21.587C1349.58 21.8228 1349.29 22.1694 1349.09 22.6268C1348.88 23.0813 1348.78 23.6367 1348.78 24.293C1348.78 24.9606 1348.88 25.5231 1349.09 25.9805C1349.3 26.435 1349.58 26.7788 1349.95 27.0117C1350.31 27.2418 1350.73 27.3569 1351.2 27.3569C1351.47 27.3569 1351.71 27.3228 1351.94 27.2546C1352.17 27.1836 1352.37 27.0799 1352.56 26.9435C1352.74 26.8072 1352.89 26.6396 1353.02 26.4407C1353.15 26.2418 1353.24 26.0146 1353.28 25.7589L1354.88 25.7674C1354.82 26.1822 1354.69 26.5714 1354.49 26.935C1354.29 27.2987 1354.04 27.6197 1353.72 27.8981C1353.4 28.1737 1353.03 28.3896 1352.6 28.5458C1352.18 28.6992 1351.7 28.7759 1351.18 28.7759C1350.42 28.7759 1349.73 28.5984 1349.13 28.2433C1348.53 27.8882 1348.05 27.3754 1347.71 26.7049C1347.36 26.0345 1347.19 25.2305 1347.19 24.293C1347.19 23.3526 1347.36 22.5487 1347.71 21.881C1348.06 21.2106 1348.54 20.6978 1349.14 20.3427C1349.74 19.9876 1350.42 19.81 1351.18 19.81C1351.67 19.81 1352.12 19.8782 1352.54 20.0146C1352.96 20.1509 1353.33 20.3512 1353.65 20.6154C1353.98 20.8768 1354.25 21.1978 1354.46 21.5785C1354.67 21.9563 1354.81 22.3882 1354.88 22.8739ZM1355.94 21.2546V19.9293H1362.9V21.2546H1360.21V28.6566H1358.64V21.2546H1355.94ZM1368.99 22.3285C1368.95 21.9563 1368.78 21.6666 1368.49 21.4592C1368.19 21.2518 1367.81 21.1481 1367.35 21.1481C1367.02 21.1481 1366.73 21.1978 1366.5 21.2972C1366.26 21.3967 1366.08 21.5316 1365.96 21.7021C1365.83 21.8725 1365.77 22.0671 1365.76 22.2859C1365.76 22.4677 1365.81 22.6254 1365.89 22.7589C1365.97 22.8924 1366.09 23.006 1366.23 23.0998C1366.38 23.1907 1366.54 23.2674 1366.71 23.3299C1366.89 23.3924 1367.07 23.445 1367.25 23.4876L1368.07 23.6921C1368.39 23.7688 1368.71 23.8725 1369.02 24.0032C1369.32 24.1339 1369.6 24.2987 1369.84 24.4975C1370.08 24.6964 1370.28 24.9364 1370.42 25.2177C1370.56 25.4989 1370.63 25.8285 1370.63 26.2063C1370.63 26.7177 1370.5 27.168 1370.24 27.5572C1369.98 27.9435 1369.6 28.2461 1369.11 28.4649C1368.61 28.6808 1368.02 28.7887 1367.32 28.7887C1366.64 28.7887 1366.05 28.6836 1365.55 28.4734C1365.05 28.2632 1364.66 27.9563 1364.38 27.5529C1364.11 27.1495 1363.95 26.658 1363.93 26.0785H1365.49C1365.51 26.3825 1365.6 26.6353 1365.77 26.837C1365.93 27.0387 1366.15 27.1893 1366.41 27.2887C1366.68 27.3882 1366.98 27.4379 1367.31 27.4379C1367.65 27.4379 1367.95 27.3867 1368.21 27.2845C1368.47 27.1793 1368.68 27.0345 1368.82 26.8498C1368.97 26.6623 1369.05 26.4435 1369.05 26.1935C1369.05 25.9663 1368.98 25.7788 1368.85 25.631C1368.72 25.4805 1368.54 25.3555 1368.3 25.256C1368.07 25.1538 1367.79 25.0629 1367.48 24.9833L1366.49 24.7276C1365.77 24.543 1365.2 24.2632 1364.78 23.8882C1364.37 23.5103 1364.16 23.0089 1364.16 22.3839C1364.16 21.8697 1364.3 21.4194 1364.58 21.033C1364.86 20.6467 1365.24 20.347 1365.73 20.1339C1366.21 19.918 1366.76 19.81 1367.37 19.81C1367.99 19.81 1368.53 19.918 1368.99 20.1339C1369.46 20.347 1369.83 20.6438 1370.1 21.0245C1370.37 21.4024 1370.5 21.837 1370.51 22.3285H1368.99Z" fill="white"/>
</svg>
